<svg width="50" height="50" viewBox="0 0 50 50" fill="none" xmlns="http://www.w3.org/2000/svg">
<path d="M19.1667 16.6667H17.5V18.3334H19.1667V16.6667Z" fill="#FC5C63"/>
<path d="M19.1667 20H17.5V21.6667H19.1667V20Z" fill="#FC5C63"/>
<path d="M19.1667 23.3333H17.5V25H19.1667V23.3333Z" fill="#FC5C63"/>
<path d="M19.1667 26.6667H17.5V28.3334H19.1667V26.6667Z" fill="#FC5C63"/>
<path d="M22.5 16.6667H20.8333V18.3334H22.5V16.6667Z" fill="#FC5C63"/>
<path d="M22.5 20H20.8333V21.6667H22.5V20Z" fill="#FC5C63"/>
<path d="M22.5 23.3333H20.8333V25H22.5V23.3333Z" fill="#FC5C63"/>
<path d="M22.5 26.6667H20.8333V28.3334H22.5V26.6667Z" fill="#FC5C63"/>
<path d="M25.8333 16.6667H24.1667V18.3334H25.8333V16.6667Z" fill="#FC5C63"/>
<path d="M25.8333 20H24.1667V21.6667H25.8333V20Z" fill="#FC5C63"/>
<path d="M25.8333 23.3333H24.1667V25H25.8333V23.3333Z" fill="#FC5C63"/>
<path d="M25.8333 26.6667H24.1667V28.3334H25.8333V26.6667Z" fill="#FC5C63"/>
<path d="M29.1667 16.6667H27.5V18.3334H29.1667V16.6667Z" fill="#FC5C63"/>
<path d="M22.5 13.3333H20.8333V15H22.5V13.3333Z" fill="#FC5C63"/>
<path d="M25.8333 13.3333H24.1667V15H25.8333V13.3333Z" fill="#FC5C63"/>
<path d="M29.1667 13.3333H27.5V15H29.1667V13.3333Z" fill="#FC5C63"/>
<path d="M29.1667 20H27.5V21.6667H29.1667V20Z" fill="#FC5C63"/>
<path d="M29.1667 23.3333H27.5V25H29.1667V23.3333Z" fill="#FC5C63"/>
<path d="M29.1667 26.6667H27.5V28.3334H29.1667V26.6667Z" fill="#FC5C63"/>
<path d="M32.5 16.6667H30.8333V18.3334H32.5V16.6667Z" fill="#FC5C63"/>
<path d="M32.5 20H30.8333V21.6667H32.5V20Z" fill="#FC5C63"/>
<path d="M32.5 23.3333H30.8333V25H32.5V23.3333Z" fill="#FC5C63"/>
<path d="M32.5 26.6667H30.8333V28.3334H32.5V26.6667Z" fill="#FC5C63"/>
<path d="M49.1676 12.5C49.1673 12.5 49.167 12.5 49.1667 12.5H36.6667V0.833334C36.667 0.373334 36.2943 0.000312696 35.8343 1.9637e-07C35.834 1.9637e-07 35.8336 1.9637e-07 35.8333 1.9637e-07H14.1667C13.7067 -0.000312304 13.3336 0.372396 13.3333 0.832396C13.3333 0.832709 13.3333 0.833021 13.3333 0.833334V12.5H0.833334C0.373334 12.4997 0.000312696 12.8724 1.9637e-07 13.3324C1.9637e-07 13.3327 1.9637e-07 13.333 1.9637e-07 13.3333V43.3333C-0.000312304 43.7933 0.372396 44.1664 0.832396 44.1667C0.832709 44.1667 0.833021 44.1667 0.833334 44.1667H2.57531C2.52698 44.4419 2.50177 44.7206 2.5 45V49.1667C2.49969 49.6267 2.8724 49.9997 3.3324 50C3.33271 50 3.33302 50 3.33333 50H46.6667C47.1267 50.0003 47.4997 49.6276 47.5 49.1676C47.5 49.1673 47.5 49.167 47.5 49.1667V45C47.4983 44.7206 47.4731 44.4419 47.4247 44.1667H49.1667C49.6267 44.167 49.9997 43.7943 50 43.3343C50 43.334 50 43.3336 50 43.3333V13.3333C50.0003 12.8733 49.6276 12.5003 49.1676 12.5ZM35.8333 35.8333C35.8333 36.7539 35.0872 37.5 34.1667 37.5C33.2461 37.5 32.5 36.7539 32.5 35.8333C32.5 34.9128 33.2461 34.1667 34.1667 34.1667C35.0867 34.1678 35.8322 34.9133 35.8333 35.8333ZM15.8333 34.1667C16.7539 34.1667 17.5 34.9128 17.5 35.8333C17.5 36.7539 16.7539 37.5 15.8333 37.5C14.9128 37.5 14.1667 36.7539 14.1667 35.8333C14.1678 34.9133 14.9133 34.1678 15.8333 34.1667ZM10.8333 48.3333H4.16667V45C4.16667 43.1591 5.65906 41.6667 7.5 41.6667C9.34094 41.6667 10.8333 43.1591 10.8333 45V48.3333ZM5.83333 38.3333C5.83333 37.4128 6.57948 36.6667 7.5 36.6667C8.42052 36.6667 9.16667 37.4128 9.16667 38.3333C9.16667 39.2539 8.42052 40 7.5 40C6.58 39.9989 5.83448 39.2533 5.83333 38.3333ZM10.9596 41.3984C10.6453 41.0953 10.2929 40.8345 9.91125 40.6225C11.1823 39.2908 11.1332 37.1808 9.80156 35.9097C8.4699 34.6385 6.3599 34.6877 5.08875 36.0194C3.85927 37.3074 3.85927 39.3344 5.08875 40.6224C4.29333 41.0639 3.6325 41.7127 3.17646 42.4999H1.66667V14.1667H13.3333V33.6517C12.189 34.9357 12.2276 36.8849 13.4221 38.1225C12.1721 38.8139 11.2764 40.0055 10.9596 41.3984ZM19.1667 48.3333H12.5V42.5C12.5 40.6591 13.9924 39.1667 15.8333 39.1667C17.6743 39.1667 19.1667 40.6591 19.1667 42.5V48.3333ZM29.1667 48.3333H20.8333V42.5C20.8333 40.1989 22.6989 38.3333 25 38.3333C27.3011 38.3333 29.1667 40.1989 29.1667 42.5V48.3333ZM22.5 34.1667C22.5 32.7859 23.6193 31.6667 25 31.6667C26.3807 31.6667 27.5 32.7859 27.5 34.1667C27.5 35.5474 26.3807 36.6667 25 36.6667C23.6199 36.6652 22.5015 35.5468 22.5 34.1667ZM30.0752 39.6349C29.5172 38.6511 28.687 37.8496 27.6843 37.3266C29.4444 35.8441 29.6694 33.2154 28.187 31.4553C26.7045 29.6952 24.0758 29.4702 22.3157 30.9526C20.5556 32.4351 20.3306 35.0637 21.813 36.8239C21.9659 37.0054 22.1341 37.1735 22.3157 37.3266C21.313 37.8496 20.4828 38.6511 19.9248 39.6349C19.4867 39.0099 18.9121 38.4927 18.2446 38.1225C19.5222 36.8155 19.4984 34.7202 18.1914 33.4426C17.3498 32.6199 16.1347 32.3061 15 32.6183V1.66667H35V32.6183C34.7284 32.5434 34.4483 32.5036 34.1667 32.5C32.3306 32.4951 30.8382 33.9796 30.8333 35.8157C30.831 36.6749 31.1616 37.5017 31.7554 38.1225C31.0879 38.4927 30.5133 39.0099 30.0752 39.6349ZM37.5 45V48.3333H30.8333V42.5C30.8333 40.6591 32.3257 39.1667 34.1667 39.1667C36.0076 39.1667 37.5 40.6591 37.5 42.5V45ZM45.8333 48.3333H39.1667V45C39.1667 43.1591 40.6591 41.6667 42.5 41.6667C44.3409 41.6667 45.8333 43.1591 45.8333 45V48.3333ZM40.8333 38.3333C40.8333 37.4128 41.5795 36.6667 42.5 36.6667C43.4205 36.6667 44.1667 37.4128 44.1667 38.3333C44.1667 39.2539 43.4205 40 42.5 40C41.58 39.9989 40.8345 39.2533 40.8333 38.3333ZM48.3333 42.5H46.8235C46.3675 41.7128 45.7067 41.064 44.9112 40.6225C46.1823 39.2908 46.1332 37.1808 44.8016 35.9097C43.4699 34.6386 41.3599 34.6877 40.0887 36.0194C38.8593 37.3074 38.8593 39.3344 40.0887 40.6224C39.7071 40.8344 39.3546 41.0952 39.0404 41.3983C38.7237 40.0054 37.8279 38.8137 36.5779 38.1224C37.7724 36.8848 37.8111 34.9356 36.6668 33.6516V14.1667H48.3334V42.5H48.3333Z" fill="#FC5C63"/>
<path d="M40.8333 19.1667H39.1667V32.5H40.8333V19.1667Z" fill="#FC5C63"/>
<path d="M45.8333 19.1667H44.1667V32.5H45.8333V19.1667Z" fill="#FC5C63"/>
<path d="M5.83334 19.1667H4.16667V32.5H5.83334V19.1667Z" fill="#FC5C63"/>
<path d="M10.8333 19.1667H9.16667V32.5H10.8333V19.1667Z" fill="#FC5C63"/>
<path d="M30.0009 3.33331C30.0006 3.33331 30.0003 3.33331 30 3.33331H20C19.54 3.333 19.167 3.70571 19.1667 4.16571C19.1667 4.16602 19.1667 4.16633 19.1667 4.16665V10.8333C19.1664 11.2933 19.5391 11.6663 19.9991 11.6666C19.9994 11.6666 19.9997 11.6666 20 11.6666H30C30.46 11.667 30.833 11.2943 30.8333 10.8343C30.8333 10.8339 30.8333 10.8336 30.8333 10.8333V4.16665C30.8337 3.70665 30.4609 3.33363 30.0009 3.33331ZM29.1667 9.99998H20.8333V4.99998H29.1667V9.99998Z" fill="#FC5C63"/>
</svg>
