<svg width="50" height="50" viewBox="0 0 50 50" fill="none" xmlns="http://www.w3.org/2000/svg">
<path d="M40.4304 14.5264C40.9696 14.5264 41.4069 14.0892 41.4069 13.5498V2.92969C41.4069 1.31426 40.0927 0 38.4772 0H2.93036C1.31493 0 0.000671387 1.31426 0.000671387 2.92969V47.0703C0.000671387 48.6857 1.31493 50 2.93036 50H38.4772C40.0927 50 41.4069 48.6857 41.4069 47.0703V39.8758C41.4069 39.3364 40.9696 38.8992 40.4304 38.8992C39.8911 38.8992 39.4538 39.3364 39.4538 39.8758V47.0703C39.4538 47.6088 39.0157 48.0469 38.4772 48.0469H2.93036C2.39188 48.0469 1.9538 47.6088 1.9538 47.0703V2.92969C1.9538 2.39121 2.39188 1.95312 2.93036 1.95312H38.4772C39.0157 1.95312 39.4538 2.39121 39.4538 2.92969V13.5498C39.4538 14.0892 39.8911 14.5264 40.4304 14.5264Z" fill="#FC5C63"/>
<path d="M20.7038 5.27344C15.7498 5.27344 11.7194 9.30381 11.7194 14.2578C11.7194 16.8278 12.8044 19.1489 14.5399 20.788C14.5725 20.8228 14.607 20.8557 14.6448 20.8856C16.2436 22.3484 18.3712 23.2421 20.7037 23.2421C23.0362 23.2421 25.1639 22.3483 26.7626 20.8856C26.8004 20.8557 26.835 20.8227 26.8675 20.788C28.6032 19.1489 29.6882 16.8278 29.6882 14.2578C29.6882 9.30381 25.6578 5.27344 20.7038 5.27344ZM20.7038 21.2891C19.1092 21.2891 17.6375 20.7547 16.4566 19.8566C17.3149 18.3347 18.9166 17.3828 20.7038 17.3828C22.491 17.3828 24.0927 18.3347 24.951 19.8566C23.77 20.7547 22.2984 21.2891 20.7038 21.2891ZM19.1413 13.8672V13.2324C19.1413 12.3709 19.8423 11.6699 20.7038 11.6699C21.5653 11.6699 22.2663 12.3709 22.2663 13.2324V13.8672C22.2663 14.7287 21.5653 15.4297 20.7038 15.4297C19.8423 15.4297 19.1413 14.7287 19.1413 13.8672ZM26.362 18.4261C25.6418 17.3579 24.6437 16.5271 23.4848 16.0143C23.9447 15.4198 24.2194 14.6752 24.2194 13.8672V13.2324C24.2194 11.2938 22.6424 9.7168 20.7038 9.7168C18.7652 9.7168 17.1882 11.2938 17.1882 13.2324V13.8672C17.1882 14.6752 17.4629 15.4198 17.9229 16.0143C16.764 16.5271 15.7658 17.3579 15.0456 18.4261C14.1834 17.2588 13.6726 15.8171 13.6726 14.2578C13.6726 10.3808 16.8268 7.22656 20.7038 7.22656C24.5809 7.22656 27.7351 10.3808 27.7351 14.2578C27.7351 15.8171 27.2242 17.2588 26.362 18.4261Z" fill="#FC5C63"/>
<path d="M25.9772 42.7734H20.7038C20.1646 42.7734 19.7272 43.2106 19.7272 43.75C19.7272 44.2894 20.1646 44.7266 20.7038 44.7266H25.9772C26.5165 44.7266 26.9538 44.2894 26.9538 43.75C26.9538 43.2106 26.5165 42.7734 25.9772 42.7734Z" fill="#FC5C63"/>
<path d="M25.9772 37.3047H12.1101C11.5708 37.3047 11.1335 37.7419 11.1335 38.2812C11.1335 38.8206 11.5708 39.2578 12.1101 39.2578H25.9772C26.5165 39.2578 26.9538 38.8206 26.9538 38.2812C26.9538 37.7419 26.5165 37.3047 25.9772 37.3047Z" fill="#FC5C63"/>
<path d="M25.9772 31.8359H12.1101C11.5708 31.8359 11.1335 32.2731 11.1335 32.8125C11.1335 33.3519 11.5708 33.7891 12.1101 33.7891H25.9772C26.5165 33.7891 26.9538 33.3519 26.9538 32.8125C26.9538 32.2731 26.5165 31.8359 25.9772 31.8359Z" fill="#FC5C63"/>
<path d="M8.6295 26.6533C8.44795 26.4717 8.196 26.3672 7.93819 26.3672C7.68125 26.3672 7.4293 26.4717 7.24776 26.6533C7.06612 26.835 6.96162 27.0869 6.96162 27.3438C6.96162 27.6006 7.06602 27.8525 7.24776 28.0342C7.43037 28.2158 7.68125 28.3203 7.93819 28.3203C8.196 28.3203 8.44698 28.2158 8.6295 28.0342C8.81114 27.8525 8.91573 27.6006 8.91573 27.3438C8.91573 27.0869 8.81123 26.835 8.6295 26.6533Z" fill="#FC5C63"/>
<path d="M8.6295 32.1221C8.44698 31.9404 8.196 31.8359 7.93819 31.8359C7.68125 31.8359 7.43037 31.9404 7.24776 32.1221C7.06612 32.3037 6.96162 32.5557 6.96162 32.8125C6.96162 33.0693 7.06602 33.3213 7.24776 33.5029C7.43037 33.6846 7.68125 33.7891 7.93819 33.7891C8.196 33.7891 8.44698 33.6846 8.6295 33.5029C8.81114 33.3213 8.91573 33.0693 8.91573 32.8125C8.91573 32.5557 8.81123 32.3037 8.6295 32.1221Z" fill="#FC5C63"/>
<path d="M8.6295 37.5908C8.44698 37.4092 8.196 37.3047 7.93819 37.3047C7.68125 37.3047 7.43037 37.4092 7.24776 37.5908C7.06612 37.7725 6.96162 38.0244 6.96162 38.2812C6.96162 38.5381 7.06602 38.79 7.24776 38.9717C7.4293 39.1533 7.68125 39.2578 7.93819 39.2578C8.196 39.2578 8.44795 39.1533 8.6295 38.9717C8.81114 38.79 8.91573 38.5381 8.91573 38.2812C8.91573 38.0244 8.81123 37.7725 8.6295 37.5908Z" fill="#FC5C63"/>
<path d="M25.9772 26.3672H12.1101C11.5708 26.3672 11.1335 26.8044 11.1335 27.3438C11.1335 27.8831 11.5708 28.3203 12.1101 28.3203H25.9772C26.5165 28.3203 26.9538 27.8831 26.9538 27.3438C26.9538 26.8044 26.5165 26.3672 25.9772 26.3672Z" fill="#FC5C63"/>
<path d="M47.9494 12.7266C47.0007 12.1789 45.8954 12.0333 44.837 12.3168C43.7788 12.6004 42.8942 13.2791 42.3466 14.2279L30.0573 35.5133C29.99 35.63 29.9474 35.7594 29.9325 35.8933L29.0675 43.6417C29.0245 44.0273 29.2138 44.4018 29.5497 44.5958C29.7013 44.6833 29.8698 44.7267 30.0379 44.7267C30.2422 44.7267 30.4457 44.6627 30.6171 44.5365L36.8948 39.913C37.0033 39.8332 37.0941 39.7317 37.1614 39.615L49.4506 18.3295C50.5814 16.3709 49.908 13.8575 47.9494 12.7266ZM31.2561 41.6401L31.7079 37.594L34.5343 39.2258L31.2561 41.6401ZM35.9583 37.7926L32.2371 35.6442L42.0989 18.5631L45.8201 20.7116L35.9583 37.7926ZM47.7592 17.3529L46.7966 19.0202L43.0754 16.8717L44.038 15.2044C44.3249 14.7075 44.7882 14.352 45.3425 14.2035C45.897 14.0548 46.4759 14.1312 46.9727 14.4181C47.4697 14.705 47.8252 15.1683 47.9737 15.7226C48.1222 16.2769 48.0461 16.8559 47.7592 17.3529Z" fill="#FC5C63"/>
</svg>
