<svg width="50" height="50" viewBox="0 0 50 50" fill="none" xmlns="http://www.w3.org/2000/svg">
<path d="M50 25.8065V19.3355C50 17.5411 48.8451 15.9888 47.1266 15.4734L41.9355 13.916V12.691C43.396 11.6695 44.3548 9.97826 44.3548 8.0653V5.64516C44.3548 2.53237 41.8225 0 38.7097 0C35.5969 0 33.0645 2.53237 33.0645 5.64516V8.06452C33.0645 9.97826 34.0234 11.6695 35.4839 12.6902V13.9152L30.909 15.2879C29.1921 13.7526 27.0047 12.9032 24.6822 12.9032C22.3692 12.9032 20.253 13.7506 18.6177 15.147L14.5161 13.916V12.691C15.9766 11.6695 16.9355 9.97826 16.9355 8.0653V5.64516C16.9355 2.53237 14.4031 0 11.2903 0C8.17753 0 5.64516 2.53237 5.64516 5.64516V8.06452C5.64516 9.97826 6.604 11.6695 8.06452 12.6902V13.9152L2.87338 15.4726C1.15494 15.9888 0 17.5411 0 19.3355V25.8065H1.6129V19.3355C1.6129 18.259 2.30555 17.3273 3.33724 17.0186L8.52996 15.4604C8.99934 16.07 9.90738 16.9355 11.2903 16.9355C12.6733 16.9355 13.5813 16.07 14.0507 15.4604L17.358 16.4523C16.3082 17.7727 15.6089 19.3796 15.3966 21.1379C14.3669 20.0436 12.9087 19.3548 11.2903 19.3548C8.17753 19.3548 5.64516 21.8872 5.64516 25V27.4194C5.64516 29.3331 6.604 31.0244 8.06452 32.045V33.2701L2.87338 34.8274C1.15494 35.3437 0 36.8959 0 38.6904V45.9677H9.67742C10.1216 45.9677 10.4839 46.33 10.4839 46.7742V50H39.5161V46.7742C39.5161 46.33 39.8784 45.9677 40.3226 45.9677H50V38.6904C50 36.8959 48.8451 35.3437 47.1266 34.8282L41.9355 33.2709V32.0458C43.396 31.0244 44.3548 29.3331 44.3548 27.4201V25.0008C44.3548 21.888 41.8225 19.3556 38.7097 19.3556C37.1306 19.3556 35.7032 20.0089 34.6774 21.0571V20.2928C34.6774 18.7 33.8119 17.2663 32.4613 16.5082L35.9493 15.4612C36.4187 16.07 37.3267 16.9355 38.7097 16.9355C40.0926 16.9355 41.0007 16.07 41.47 15.4604L46.6635 17.0186C47.6944 17.3273 48.3871 18.259 48.3871 19.3355V25.8065H50ZM11.2903 1.6129C13.5136 1.6129 15.3226 3.42191 15.3226 5.64516H11.6242C11.1119 5.64516 10.6095 5.43725 10.2476 5.07497L9.67742 4.50479L9.10723 5.07497C8.74535 5.43725 8.2429 5.64516 7.73059 5.64516H7.25806C7.25806 3.42191 9.06707 1.6129 11.2903 1.6129ZM7.25806 8.06452V7.25806H7.73059C8.43309 7.25806 9.10408 7.05645 9.67742 6.68C10.2508 7.05645 10.9217 7.25806 11.6242 7.25806H15.3226V8.06452C15.3226 10.2878 13.5136 12.0968 11.2903 12.0968C9.06707 12.0968 7.25806 10.2878 7.25806 8.06452ZM11.2903 15.3226C10.4331 15.3226 9.87746 14.6024 9.67742 14.2944V13.4726C10.1885 13.625 10.73 13.7097 11.2903 13.7097C11.8507 13.7097 12.3921 13.625 12.9032 13.4718V14.2936C12.7032 14.6032 12.1476 15.3226 11.2903 15.3226ZM33.4579 29.4772C33.8686 30.5203 34.5774 31.4122 35.4839 32.0458V33.2709L30.2935 34.8282C30.1226 34.879 29.9564 34.9452 29.7942 35.0184L29.0323 34.8428V33.2539C29.8942 32.5613 30.5735 31.6517 30.9905 30.6089C31.9194 30.5274 32.7904 30.1321 33.4579 29.4772V29.4772ZM25 34.6774C25.8557 34.6774 26.672 34.5065 27.4194 34.2025V35.0806L25 36.8952L22.5806 35.0806V34.2025C23.328 34.5065 24.1443 34.6774 25 34.6774V34.6774ZM21.5903 36.3541L23.5564 37.8292L21.534 39.0428L21.0225 36.4856L21.5903 36.3541ZM24.1089 42.7419H25.8911L26.5184 48.3871H23.4816L24.1089 42.7419ZM26.0313 41.129H23.9679L23.5048 39.7402L25 38.8436L26.4944 39.7402L26.0313 41.129ZM26.4436 37.8292L28.4097 36.3541L28.9775 36.4848L28.466 39.042L26.4436 37.8292ZM32.4357 28.2404C32.1565 28.5467 31.8017 28.7613 31.417 28.8921C31.4394 28.6727 31.4516 28.4507 31.4516 28.2258V24.3668C32.3195 24.696 32.9653 25.4595 33.0523 26.3719C33.1185 27.0661 32.8999 27.7289 32.4357 28.2404V28.2404ZM29.8387 28.2258C29.8387 30.8944 27.6686 33.0645 25 33.0645C22.3314 33.0645 20.1613 30.8944 20.1613 28.2258V24.1935H22.8992C24.6566 24.1935 26.3668 23.7549 27.8958 22.9169L28.5337 24.1935H29.8387V28.2258ZM18.583 28.8921C18.1983 28.7613 17.8435 28.5467 17.5643 28.2404C17.1001 27.7296 16.8815 27.0661 16.9477 26.3727C17.0347 25.4603 17.6805 24.696 18.5484 24.3676V28.2258C18.5484 28.4507 18.5606 28.6727 18.583 28.8921ZM19.0095 30.6089C19.4257 31.6517 20.105 32.5613 20.9677 33.2539V34.8428L20.2058 35.0184C20.0428 34.9452 19.8774 34.8798 19.7073 34.8282L14.5161 33.2709V32.0458C15.4218 31.4122 16.1314 30.5203 16.5421 29.4772C17.2096 30.1321 18.0806 30.5274 19.0095 30.6089ZM11.2903 20.9677C13.5136 20.9677 15.3226 22.7767 15.3226 25H14.8501C14.3377 25 13.8353 24.7921 13.4734 24.4298L12.9032 23.8596L12.333 24.4298C11.9712 24.7921 11.4687 25 10.9564 25H7.25806C7.25806 22.7767 9.06707 20.9677 11.2903 20.9677ZM7.25806 27.4194V26.6129H10.9564C11.6589 26.6129 12.3299 26.4113 12.9032 26.0348C13.4766 26.4113 14.1476 26.6129 14.8501 26.6129H15.3226V27.4194C15.3226 29.6426 13.5136 31.4516 11.2903 31.4516C9.06707 31.4516 7.25806 29.6426 7.25806 27.4194ZM11.2903 33.0645C11.8507 33.0645 12.3921 32.9799 12.9032 32.8267V33.6485C12.7032 33.958 12.1476 34.6774 11.2903 34.6774C10.4331 34.6774 9.87746 33.9572 9.67742 33.6493V32.8275C10.1885 32.9799 10.73 33.0645 11.2903 33.0645V33.0645ZM9.67742 44.3548H6.45161V38.7097H4.83871V44.3548H1.6129V38.6904C1.6129 37.6138 2.30555 36.6821 3.33724 36.3734L8.52996 34.8152C8.99934 35.4248 9.90738 36.2903 11.2903 36.2903C12.6733 36.2903 13.5813 35.4248 14.0507 34.8152L17.1087 35.7331L14.8595 36.2517C12.283 36.8467 10.4839 39.109 10.4839 41.7524V42.7419H12.0968V41.7524C12.0968 39.8638 13.3825 38.2486 15.2226 37.8233L19.4501 36.8475L20.4007 41.6024L22.088 40.5903L22.5653 42.0225L21.8589 48.3871H17.7419V41.9355H16.129V48.3871H12.0968V46.7742C12.0968 45.4405 11.0111 44.3548 9.67742 44.3548V44.3548ZM46.6628 36.3734C47.6944 36.6821 48.3871 37.6138 48.3871 38.6904V44.3548H45.1613V38.7097H43.5484V44.3548H40.3226C38.9889 44.3548 37.9032 45.4405 37.9032 46.7742V48.3871H33.871V41.9355H32.2581V48.3871H28.1411L27.4339 42.0225L27.9112 40.5903L29.5985 41.6024L30.5491 36.8475L34.7774 37.8233C36.6176 38.2486 37.9032 39.8638 37.9032 41.7524V42.7419H39.5161V41.7524C39.5161 39.109 37.717 36.8467 35.1405 36.2517L32.8913 35.7331L35.9493 34.8152C36.4187 35.4248 37.3267 36.2903 38.7097 36.2903C40.0926 36.2903 41.0007 35.4248 41.47 34.8152L46.6628 36.3734ZM40.3226 33.6493C40.1225 33.958 39.5669 34.6774 38.7097 34.6774C37.8509 34.6774 37.2944 33.9548 37.0968 33.6493V32.8267C37.6079 32.9799 38.1493 33.0645 38.7097 33.0645C39.27 33.0645 39.8115 32.9799 40.3226 32.8267V33.6493ZM38.7097 31.4516C36.4864 31.4516 34.6774 29.6426 34.6774 27.4194V26.6129H35.1499C35.8524 26.6129 36.5234 26.4113 37.0968 26.0348C37.6701 26.4113 38.3411 26.6129 39.0436 26.6129H42.7419V27.4194C42.7419 29.6426 40.9329 31.4516 38.7097 31.4516ZM38.7097 20.9677C40.9329 20.9677 42.7419 22.7767 42.7419 25H39.0436C38.5313 25 38.0288 24.7921 37.667 24.4298L37.0968 23.8596L36.5266 24.4298C36.1647 24.7921 35.6623 25 35.1499 25H34.6774C34.6774 22.7767 36.4864 20.9677 38.7097 20.9677ZM33.0645 23.4556C32.351 22.9154 31.4646 22.5806 30.5066 22.5806H29.5308L28.5389 20.5968L27.7789 21.1032C26.3282 22.0703 24.6413 22.5806 22.8992 22.5806H19.4934C18.5354 22.5806 17.649 22.9154 16.9355 23.4556V22.2629C16.9355 17.992 20.4113 14.5161 24.6822 14.5161C26.7515 14.5161 28.6975 15.3218 30.1604 16.7847L31.0161 17.6403L31.1968 17.701C32.3136 18.0735 33.0645 19.1146 33.0645 20.292V23.4556ZM38.7097 1.6129C40.9329 1.6129 42.7419 3.42191 42.7419 5.64516H42.2694C41.7571 5.64516 41.2546 5.43725 40.8928 5.07497L40.3226 4.50479L39.7524 5.07497C39.3905 5.43725 38.8881 5.64516 38.3758 5.64516H34.6774C34.6774 3.42191 36.4864 1.6129 38.7097 1.6129ZM34.6774 8.06452V7.25806H38.3758C39.0783 7.25806 39.7492 7.05645 40.3226 6.68C40.8959 7.05645 41.5669 7.25806 42.2694 7.25806H42.7419V8.06452C42.7419 10.2878 40.9329 12.0968 38.7097 12.0968C36.4864 12.0968 34.6774 10.2878 34.6774 8.06452ZM38.7097 15.3226C37.8509 15.3226 37.2944 14.6 37.0968 14.2944V13.4718C37.6079 13.625 38.1493 13.7097 38.7097 13.7097C39.27 13.7097 39.8115 13.625 40.3226 13.4718V14.2936C40.1225 14.6032 39.5669 15.3226 38.7097 15.3226Z" fill="#FC5C63"/>
<path d="M18.5484 0H20.1613V1.6129H18.5484V0Z" fill="#FC5C63"/>
<path d="M18.5484 3.22583H20.1613V12.0968H18.5484V3.22583Z" fill="#FC5C63"/>
<path d="M29.8387 0H31.4516V1.6129H29.8387V0Z" fill="#FC5C63"/>
<path d="M29.8387 3.22583H31.4516V12.0968H29.8387V3.22583Z" fill="#FC5C63"/>
<path d="M21.7742 3.22583H23.3871V8.87099H21.7742V3.22583Z" fill="#FC5C63"/>
<path d="M21.7742 10.4839H23.3871V12.0968H21.7742V10.4839Z" fill="#FC5C63"/>
<path d="M26.6129 3.22583H28.2258V8.87099H26.6129V3.22583Z" fill="#FC5C63"/>
<path d="M26.6129 10.4839H28.2258V12.0968H26.6129V10.4839Z" fill="#FC5C63"/>
</svg>
