<svg width="50" height="50" viewBox="0 0 50 50" fill="none" xmlns="http://www.w3.org/2000/svg">
<path d="M46.0938 27.3438C45.0894 27.3438 44.3081 28.0231 44.0407 28.2898L40.4087 30.4688H37.5C37.2928 30.4688 37.0941 30.5511 36.9476 30.6976C36.8011 30.8441 36.7188 31.0428 36.7188 31.25V32.8125H35.0368L34.3644 28.7777C34.3299 28.5737 34.2159 28.3917 34.0474 28.2716C33.8789 28.1515 33.6696 28.1032 33.4655 28.1372C33.2614 28.1712 33.0791 28.2849 32.9587 28.4531C32.8383 28.6214 32.7895 28.8306 32.8231 29.0348L33.4528 32.8125H31.1462L30.5767 28.8246C30.523 28.4496 30.3793 28.0931 30.1577 27.7857C29.9361 27.4784 29.6434 27.2294 29.3045 27.06L26.9119 25.8637C26.8034 25.8094 26.6838 25.7812 26.5625 25.7813H23.4375C23.3162 25.7812 23.1966 25.8094 23.0881 25.8637L20.6955 27.06C20.3567 27.2295 20.064 27.4786 19.8425 27.786C19.621 28.0934 19.4773 28.4499 19.4238 28.825L18.8538 32.8125H16.5472L17.1769 29.0348C17.194 28.9335 17.1909 28.8298 17.1679 28.7297C17.1449 28.6296 17.1024 28.535 17.0427 28.4513C16.9831 28.3676 16.9076 28.2966 16.8205 28.2421C16.7334 28.1877 16.6364 28.151 16.535 28.1341C16.4337 28.1172 16.33 28.1204 16.23 28.1436C16.1299 28.1669 16.0354 28.2096 15.9518 28.2694C15.8683 28.3292 15.7974 28.4048 15.7431 28.4921C15.6889 28.5793 15.6523 28.6764 15.6356 28.7777L14.9632 32.8125H13.2812V31.25C13.2812 31.0428 13.1989 30.8441 13.0524 30.6976C12.9059 30.5511 12.7072 30.4688 12.5 30.4688H9.59131L5.95928 28.2898C5.69189 28.0231 4.91064 27.3438 3.90625 27.3438C3.28486 27.3444 2.68913 27.5916 2.24974 28.031C1.81035 28.4704 1.5632 29.0661 1.5625 29.6875V39.0625C1.56248 39.2265 1.61405 39.3863 1.70991 39.5193C1.80576 39.6523 1.94104 39.7518 2.09658 39.8037L2.34375 39.8861V45.3125H1.5625V46.875H48.4375V45.3125H47.6562V38.3496L47.9641 38.2177C48.1045 38.1575 48.2242 38.0574 48.3084 37.9298C48.3925 37.8023 48.4374 37.6528 48.4375 37.5V29.6875C48.4368 29.0661 48.1896 28.4704 47.7503 28.031C47.3109 27.5916 46.7151 27.3444 46.0938 27.3438V27.3438ZM39.0625 42.0774L40.8594 45.3125H39.0625V42.0774ZM39.0625 34.375H41.4062C41.5275 34.375 41.6472 34.3468 41.7557 34.2926L43.75 33.2954V34.7232L39.0625 37.6529V34.375ZM20.9697 29.0467C20.9876 28.9215 21.0356 28.8025 21.1096 28.6999C21.1835 28.5973 21.2812 28.5142 21.3943 28.4576L23.6218 27.3438H26.3782L28.6061 28.4576C28.719 28.5142 28.8166 28.5973 28.8905 28.6998C28.9643 28.8024 29.0123 28.9212 29.0303 29.0463L29.5681 32.8125H28.125V29.6875C28.125 29.4803 28.0427 29.2816 27.8962 29.1351C27.7497 28.9886 27.551 28.9062 27.3438 28.9062H22.6562C22.449 28.9062 22.2503 28.9886 22.1038 29.1351C21.9573 29.2816 21.875 29.4803 21.875 29.6875V32.8125H20.4319L20.9697 29.0467ZM26.5625 32.8125H23.4375V30.4688H26.5625V32.8125ZM37.5 34.375V35.9375H12.5V34.375H37.5ZM29.6875 37.6339V37.5H34.375V45.3125H27.4475L28.0857 40.2065L29.0009 39.2914C29.2193 39.0743 29.3924 38.816 29.5103 38.5314C29.6281 38.2469 29.6884 37.9418 29.6875 37.6339ZM20.9991 39.2914L21.9143 40.2065L22.5525 45.3125H15.625V37.5H20.3125V37.6339C20.3116 37.9418 20.3719 38.2469 20.4897 38.5314C20.6076 38.816 20.7807 39.0743 20.9991 39.2914V39.2914ZM10.9375 40.7705L10.1234 38.0566C10.0675 37.8702 9.94395 37.7113 9.77705 37.6111L6.25 35.495V33.2954L8.24434 34.2926C8.35283 34.3468 8.47246 34.375 8.59375 34.375H10.9375V40.7705ZM3.90625 40.4068L6.39346 41.2357L7.55859 45.3125H3.90625V40.4068ZM9.18311 45.3125L7.78232 40.4102C7.74744 40.2881 7.68332 40.1763 7.59552 40.0846C7.50771 39.9928 7.39887 39.9239 7.27842 39.8837L3.125 38.4994V29.6875C3.12528 29.4804 3.20769 29.2818 3.35414 29.1354C3.50059 28.9889 3.69914 28.9065 3.90625 28.9062C4.31523 28.9063 4.76494 29.2949 4.88662 29.4273C4.93876 29.4858 4.99948 29.5359 5.0667 29.5761L8.97295 31.9198C9.09442 31.9927 9.23337 32.0312 9.375 32.0312H11.7188V32.8125H8.77803L5.81816 31.3324C5.69905 31.2729 5.56668 31.2447 5.43364 31.2507C5.3006 31.2567 5.17129 31.2966 5.05801 31.3666C4.94472 31.4366 4.85121 31.5345 4.78637 31.6508C4.72152 31.7671 4.68749 31.8981 4.6875 32.0312V35.9375C4.68751 36.0724 4.72243 36.205 4.78889 36.3224C4.85534 36.4397 4.95105 36.5379 5.0667 36.6073L8.71357 38.7955L10.6686 45.3125H9.18311ZM12.5 45.3125V37.5H14.0625V45.3125H12.5ZM24.1271 45.3125L23.4313 39.7469C23.4099 39.5745 23.3315 39.4142 23.2086 39.2914L22.1039 38.1866C22.0311 38.1142 21.9734 38.0281 21.9341 37.9332C21.8948 37.8383 21.8747 37.7366 21.875 37.6339V37.5H28.125V37.6339C28.1253 37.7366 28.1052 37.8383 28.0659 37.9332C28.0266 38.0281 27.9689 38.1142 27.8961 38.1866L26.7914 39.2914C26.6685 39.4142 26.59 39.5745 26.5686 39.7469L25.8728 45.3125H24.1271ZM35.9375 45.3125V37.5H37.5V45.3125H35.9375ZM42.6472 45.3125L39.3246 39.3318L44.9451 35.8188C45.0575 35.7486 45.1502 35.6509 45.2144 35.535C45.2787 35.4191 45.3124 35.2888 45.3125 35.1562V32.0312C45.3125 31.8981 45.2785 31.7671 45.2136 31.6508C45.1488 31.5345 45.0553 31.4366 44.942 31.3666C44.8287 31.2966 44.6994 31.2567 44.5664 31.2507C44.4333 31.2447 44.301 31.2729 44.1818 31.3324L41.222 32.8125H38.2812V32.0312H40.625C40.7666 32.0312 40.9056 31.9927 41.0271 31.9198L44.9333 29.5761C45.0005 29.5359 45.0612 29.4858 45.1134 29.4273C45.2118 29.3175 45.6673 28.9062 46.0938 28.9062C46.3009 28.9065 46.4994 28.9889 46.6459 29.1354C46.7923 29.2818 46.8747 29.4804 46.875 29.6875V36.9851L41.8797 39.1258C41.7091 39.1989 41.5701 39.3304 41.4876 39.4967C41.4051 39.663 41.3845 39.8532 41.4295 40.0333L42.7494 45.3125H42.6472ZM46.0938 45.3125H44.3601L43.1068 40.2996L46.0938 39.0195V45.3125Z" fill="#FC5C63"/>
<path d="M27.3438 13.1474V15.625C27.3438 15.7664 27.3821 15.9051 27.4548 16.0264C27.5275 16.1477 27.6317 16.247 27.7564 16.3137C27.881 16.3804 28.0215 16.4121 28.1627 16.4053C28.3039 16.3984 28.4406 16.3534 28.5583 16.275L31.2891 14.4542C31.3812 14.9992 31.663 15.494 32.0848 15.8513C32.5065 16.2085 33.041 16.4051 33.5938 16.4062H36.4822L40.9729 19.4C41.0905 19.4784 41.2272 19.5235 41.3685 19.5303C41.5097 19.5372 41.6502 19.5055 41.7749 19.4388C41.8995 19.3721 42.0038 19.2728 42.0764 19.1515C42.1491 19.0302 42.1875 18.8914 42.1875 18.75V16.2724C42.6442 16.1103 43.0395 15.8109 43.3192 15.4152C43.599 15.0196 43.7494 14.5471 43.75 14.0625V9.375C43.7493 8.75361 43.5021 8.15788 43.0628 7.71849C42.6234 7.2791 42.0276 7.03195 41.4062 7.03125H38.2812V6.25C38.2806 5.62861 38.0334 5.03288 37.594 4.59349C37.1546 4.1541 36.5589 3.90695 35.9375 3.90625H28.125C27.5036 3.90695 26.9079 4.1541 26.4685 4.59349C26.0291 5.03288 25.7819 5.62861 25.7812 6.25V10.9375C25.7818 11.4221 25.9323 11.8946 26.212 12.2903C26.4918 12.6859 26.8871 12.9853 27.3438 13.1474V13.1474ZM41.4062 8.59375C41.6134 8.59403 41.8119 8.67644 41.9584 8.82289C42.1048 8.96934 42.1872 9.16789 42.1875 9.375V14.0625C42.1872 14.2696 42.1048 14.4682 41.9584 14.6146C41.8119 14.7611 41.6134 14.8435 41.4062 14.8438C41.199 14.8438 41.0003 14.9261 40.8538 15.0726C40.7073 15.2191 40.625 15.4178 40.625 15.625V17.2901L37.1521 14.975C37.0237 14.8895 36.873 14.8438 36.7188 14.8438H33.5938C33.3866 14.8435 33.1881 14.7611 33.0416 14.6146C32.8952 14.4682 32.8128 14.2696 32.8125 14.0625V13.439L33.049 13.2812H35.9375C36.5589 13.2806 37.1546 13.0334 37.594 12.594C38.0334 12.1546 38.2806 11.5589 38.2812 10.9375V8.59375H41.4062ZM32.8125 11.7188V9.375C32.8128 9.16789 32.8952 8.96934 33.0416 8.82289C33.1881 8.67644 33.3866 8.59403 33.5938 8.59375H36.7188V10.9375C36.7185 11.1446 36.6361 11.3432 36.4896 11.4896C36.3432 11.6361 36.1446 11.7185 35.9375 11.7188H32.8125ZM27.3438 6.25C27.344 6.04289 27.4264 5.84434 27.5729 5.69789C27.7193 5.55144 27.9179 5.46903 28.125 5.46875H35.9375C36.1446 5.46903 36.3432 5.55144 36.4896 5.69789C36.6361 5.84434 36.7185 6.04289 36.7188 6.25V7.03125H33.5938C32.9724 7.03195 32.3766 7.2791 31.9372 7.71849C31.4979 8.15788 31.2507 8.75361 31.25 9.375V12.6027L28.9062 14.1652V12.5C28.9062 12.2928 28.8239 12.0941 28.6774 11.9476C28.5309 11.8011 28.3322 11.7188 28.125 11.7188C27.9179 11.7185 27.7193 11.6361 27.5729 11.4896C27.4264 11.3432 27.344 11.1446 27.3438 10.9375V6.25Z" fill="#FC5C63"/>
<path d="M5.46875 15.625V17.9688C5.46875 18.1102 5.50714 18.2489 5.57981 18.3702C5.65248 18.4915 5.75671 18.5908 5.88139 18.6576C6.00607 18.7243 6.14652 18.7559 6.28776 18.7491C6.429 18.7422 6.56574 18.6972 6.6834 18.6188L11.174 15.625H14.8438C15.4651 15.6243 16.0609 15.3771 16.5003 14.9378C16.9396 14.4984 17.1868 13.9026 17.1875 13.2812V8.59375C17.1868 7.97236 16.9396 7.37663 16.5003 6.93724C16.0609 6.49785 15.4651 6.2507 14.8438 6.25H5.46875C4.84736 6.2507 4.25163 6.49785 3.81224 6.93724C3.37285 7.37663 3.1257 7.97236 3.125 8.59375V13.2812C3.1257 13.9026 3.37285 14.4984 3.81224 14.9378C4.25163 15.3771 4.84736 15.6243 5.46875 15.625ZM4.6875 8.59375C4.68778 8.38664 4.77019 8.18809 4.91664 8.04164C5.06309 7.89519 5.26164 7.81278 5.46875 7.8125H14.8438C15.0509 7.81278 15.2494 7.89519 15.3959 8.04164C15.5423 8.18809 15.6247 8.38664 15.625 8.59375V13.2812C15.6247 13.4884 15.5423 13.6869 15.3959 13.8334C15.2494 13.9798 15.0509 14.0622 14.8438 14.0625H10.9375C10.7833 14.0626 10.6325 14.1082 10.5041 14.1937L7.03125 16.5089V14.8438C7.03125 14.6365 6.94894 14.4378 6.80243 14.2913C6.65591 14.1448 6.4572 14.0625 6.25 14.0625H5.46875C5.26164 14.0622 5.06309 13.9798 4.91664 13.8334C4.77019 13.6869 4.68778 13.4884 4.6875 13.2812V8.59375Z" fill="#FC5C63"/>
<path d="M7.8125 10.1562H6.25V11.7188H7.8125V10.1562Z" fill="#FC5C63"/>
<path d="M10.9375 10.1562H9.375V11.7188H10.9375V10.1562Z" fill="#FC5C63"/>
<path d="M14.0625 10.1562H12.5V11.7188H14.0625V10.1562Z" fill="#FC5C63"/>
<path d="M25 25C25.6181 25 26.2223 24.8167 26.7362 24.4734C27.2501 24.13 27.6506 23.6419 27.8871 23.0709C28.1237 22.4999 28.1855 21.8715 28.065 21.2654C27.9444 20.6592 27.6468 20.1023 27.2097 19.6653C26.7727 19.2283 26.2159 18.9306 25.6097 18.81C25.0035 18.6895 24.3751 18.7514 23.8041 18.9879C23.2331 19.2244 22.745 19.6249 22.4017 20.1388C22.0583 20.6528 21.875 21.2569 21.875 21.875C21.8759 22.7035 22.2055 23.4978 22.7913 24.0837C23.3772 24.6695 24.1715 24.9991 25 25ZM25 20.3125C25.309 20.3125 25.6111 20.4041 25.8681 20.5758C26.125 20.7475 26.3253 20.9916 26.4436 21.2771C26.5618 21.5626 26.5928 21.8767 26.5325 22.1798C26.4722 22.4829 26.3234 22.7613 26.1049 22.9799C25.8863 23.1984 25.6079 23.3472 25.3048 23.4075C25.0017 23.4678 24.6876 23.4368 24.4021 23.3186C24.1166 23.2003 23.8725 23 23.7008 22.7431C23.5291 22.4861 23.4375 22.184 23.4375 21.875C23.4379 21.4607 23.6027 21.0635 23.8956 20.7706C24.1885 20.4777 24.5857 20.3129 25 20.3125Z" fill="#FC5C63"/>
<path d="M42.1875 23.4375C42.1875 24.0556 42.3708 24.6598 42.7142 25.1737C43.0575 25.6876 43.5456 26.0881 44.1166 26.3246C44.6876 26.5612 45.316 26.623 45.9222 26.5025C46.5284 26.3819 47.0852 26.0843 47.5222 25.6472C47.9593 25.2102 48.2569 24.6534 48.3775 24.0472C48.498 23.441 48.4362 22.8126 48.1996 22.2416C47.9631 21.6706 47.5626 21.1825 47.0487 20.8392C46.5348 20.4958 45.9306 20.3125 45.3125 20.3125C44.484 20.3134 43.6897 20.643 43.1038 21.2288C42.518 21.8147 42.1884 22.609 42.1875 23.4375V23.4375ZM45.3125 21.875C45.6215 21.875 45.9236 21.9666 46.1806 22.1383C46.4375 22.31 46.6378 22.5541 46.7561 22.8396C46.8743 23.1251 46.9053 23.4392 46.845 23.7423C46.7847 24.0454 46.6359 24.3238 46.4174 24.5424C46.1988 24.7609 45.9204 24.9097 45.6173 24.97C45.3142 25.0303 45.0001 24.9993 44.7146 24.8811C44.4291 24.7628 44.185 24.5625 44.0133 24.3056C43.8416 24.0486 43.75 23.7465 43.75 23.4375C43.7504 23.0232 43.9152 22.626 44.2081 22.3331C44.501 22.0402 44.8982 21.8754 45.3125 21.875V21.875Z" fill="#FC5C63"/>
<path d="M4.6875 26.5625C5.30557 26.5625 5.90975 26.3792 6.42366 26.0359C6.93756 25.6925 7.3381 25.2044 7.57462 24.6334C7.81115 24.0624 7.87303 23.434 7.75245 22.8279C7.63188 22.2217 7.33425 21.6648 6.89721 21.2278C6.46017 20.7908 5.90335 20.4931 5.29716 20.3725C4.69097 20.252 4.06263 20.3139 3.49161 20.5504C2.9206 20.7869 2.43254 21.1874 2.08916 21.7013C1.74578 22.2153 1.5625 22.8194 1.5625 23.4375C1.56343 24.266 1.89297 25.0603 2.47882 25.6462C3.06467 26.232 3.85898 26.5616 4.6875 26.5625V26.5625ZM4.6875 21.875C4.99653 21.875 5.29863 21.9666 5.55558 22.1383C5.81253 22.31 6.0128 22.5541 6.13106 22.8396C6.24932 23.1251 6.28027 23.4392 6.21998 23.7423C6.15969 24.0454 6.01087 24.3238 5.79235 24.5424C5.57383 24.7609 5.29542 24.9097 4.99233 24.97C4.68923 25.0303 4.37507 24.9993 4.08956 24.8811C3.80405 24.7628 3.56002 24.5625 3.38833 24.3056C3.21664 24.0486 3.125 23.7465 3.125 23.4375C3.12541 23.0232 3.29017 22.626 3.5831 22.3331C3.87604 22.0402 4.27323 21.8754 4.6875 21.875V21.875Z" fill="#FC5C63"/>
</svg>
