<svg width="50" height="50" viewBox="0 0 50 50" fill="none" xmlns="http://www.w3.org/2000/svg">
<path d="M10 4.16667V6.66667H29.1667V5H11.6667V4.16667C11.6667 2.78605 12.7861 1.66667 14.1667 1.66667H30V0H14.1667C11.8665 0.00284831 10.0028 1.86646 10 4.16667Z" fill="#FC5C63"/>
<path d="M10 18.3333V45.8333C10.0028 48.1335 11.8665 49.9971 14.1667 50H32.5V48.3333H14.1667C12.7861 48.3333 11.6667 47.2139 11.6667 45.8333V43.3333H30.8333V41.6666H11.6667V18.3333H10Z" fill="#FC5C63"/>
<path d="M38.3333 21.6667V32.155L32.6725 26.4942C31.1967 25.0183 28.8033 25.0183 27.3275 26.4942C25.8516 27.97 25.8516 30.3634 27.3275 31.8392L33.9608 38.4725L33.5909 39.1199C31.864 42.1155 32.0907 45.8525 34.1667 48.6174V50H35.8333V48.3334C35.8333 48.1441 35.769 47.9602 35.6506 47.8125C33.8424 45.5689 33.5986 42.4443 35.0374 39.9475L35.7235 38.7468C35.9086 38.4212 35.8537 38.0119 35.5892 37.7466L28.5059 30.6633C27.7026 29.8344 27.7132 28.5144 28.5291 27.6986C29.3453 26.8823 30.6653 26.8718 31.4941 27.675L40.2441 36.425L41.4225 35.2466L40 33.8216V21.6667H38.3333Z" fill="#FC5C63"/>
<path d="M24.1667 45H25.8333V46.6667H24.1667V45Z" fill="#FC5C63"/>
<path d="M45.8333 50V33.37C45.8354 31.158 45.0362 29.0198 43.5832 27.3515L42.3083 25.8167L41.025 26.8807L42.3108 28.4318C43.5071 29.7986 44.1667 31.5535 44.1667 33.37V50H45.8333Z" fill="#FC5C63"/>
<path d="M27.5 20.8333H29.1667V24.1666H27.5V20.8333Z" fill="#FC5C63"/>
<path d="M6.14258 6.85178C5.94686 7.01006 5.83334 7.2481 5.83334 7.49997V15.8333C5.83334 16.2935 6.20646 16.6666 6.66667 16.6666C6.70614 16.6666 6.74601 16.6638 6.78508 16.6585L14.1667 15.6034V19.1666C14.1667 20.5473 15.2861 21.6666 16.6667 21.6666H20.8333V39.1666C20.8333 39.6268 21.2065 40 21.6667 40H28.3333C28.7935 40 29.1667 39.6268 29.1667 39.1666V35H27.5V38.3333H25.8333V31.6666H24.1667V38.3333H22.5V20.8333C22.5 20.3731 22.1269 20 21.6667 20H16.6667C16.2065 20 15.8333 19.6268 15.8333 19.1666V15.3658L17.5 15.1273V17.5C17.5 17.9602 17.8731 18.3333 18.3333 18.3333H28.3333C29.714 18.3333 30.8333 19.4527 30.8333 20.8333V24.1666H32.5V20.8333C32.4972 18.5331 30.6335 16.6695 28.3333 16.6666H28.3118C28.8631 15.9497 29.1634 15.0712 29.1667 14.1666V12.5C29.1667 10.1989 27.301 8.33331 25 8.33331C22.699 8.33331 20.8333 10.1989 20.8333 12.5V14.1666C20.8366 15.0712 21.1369 15.9497 21.6882 16.6666H19.1667V9.99997C19.1667 9.60691 18.8924 9.26755 18.5083 9.18495L6.84164 6.68495C6.59546 6.63205 6.3383 6.69309 6.14258 6.85178ZM22.5 14.1666V12.5C22.5 11.1194 23.6194 9.99997 25 9.99997C26.3806 9.99997 27.5 11.1194 27.5 12.5V14.1666C27.5 15.5473 26.3806 16.6666 25 16.6666C23.6194 16.6666 22.5 15.5473 22.5 14.1666ZM7.5 8.53065L17.5 10.6742V13.444L7.5 14.8726V8.53065Z" fill="#FC5C63"/>
<path d="M0.630699 8.30892L1.03435 6.69189L4.36768 7.52401L3.96403 9.14103L0.630699 8.30892Z" fill="#FC5C63"/>
<path d="M0.631104 15.024L3.96444 14.1919L4.36808 15.8089L1.03475 16.641L0.631104 15.024Z" fill="#FC5C63"/>
<path d="M0 10.8333H3.33333V12.5H0V10.8333Z" fill="#FC5C63"/>
<path d="M45.8333 0H35.8333C33.5331 0.00284831 31.6695 1.86646 31.6667 4.16667V12.5C31.6695 14.8002 33.5331 16.6638 35.8333 16.6667H36.4832L35.85 19.8332C35.7849 20.1595 35.92 20.4928 36.1934 20.682C36.4669 20.8708 36.8262 20.8793 37.1082 20.7035L43.5726 16.6667H45.8333C48.1336 16.6638 49.9972 14.8002 50 12.5V4.16667C49.9972 1.86646 48.1336 0.00284831 45.8333 0ZM48.3333 12.5C48.3333 13.8806 47.214 15 45.8333 15H43.3333C43.1771 15 43.0241 15.0439 42.8919 15.1265L37.8626 18.2699L38.3167 16.0002C38.3667 15.7548 38.304 15.5001 38.1458 15.3064C37.9875 15.1123 37.7502 15 37.5 15H35.8333C34.4527 15 33.3333 13.8806 33.3333 12.5V4.16667C33.3333 2.78605 34.4527 1.66667 35.8333 1.66667H45.8333C47.214 1.66667 48.3333 2.78605 48.3333 4.16667V12.5Z" fill="#FC5C63"/>
<path d="M45.8333 5.83333H42.9459L41.5291 3.70402C41.3655 3.48551 41.1088 3.35693 40.8357 3.35693C40.5627 3.35693 40.306 3.48551 40.1424 3.70402L38.7207 5.83333H35.8333C35.4964 5.83333 35.1924 6.03637 35.0635 6.34765C34.9345 6.65893 35.0061 7.01741 35.2441 7.25586L37.4109 9.4226L36.6915 12.2974C36.6101 12.6139 36.7212 12.9488 36.9755 13.1539C37.2298 13.359 37.5805 13.3964 37.8723 13.2499L40.8333 11.7651L43.7943 13.2499C44.0853 13.3956 44.4348 13.3581 44.6887 13.1543C44.9422 12.9504 45.0541 12.6176 44.9751 12.3018L44.2557 9.42667L46.4225 7.25993C46.6638 7.02189 46.737 6.66178 46.6076 6.34847C46.4782 6.03556 46.1722 5.8317 45.8333 5.83333ZM42.7441 8.57747C42.537 8.78458 42.454 9.08528 42.5248 9.3693L42.9191 10.944L41.2056 10.0875C40.9712 9.97029 40.6954 9.97029 40.461 10.0875L38.75 10.944L39.1443 9.3693C39.2151 9.08528 39.1321 8.78458 38.9249 8.57747L37.845 7.5H39.1666C39.4454 7.5 39.7054 7.36084 39.86 7.12931L40.8333 5.6665L41.8066 7.12646C41.9608 7.35921 42.2208 7.49959 42.5 7.5H43.8216L42.7441 8.57747Z" fill="#FC5C63"/>
</svg>
