<svg width="50" height="50" viewBox="0 0 50 50" fill="none" xmlns="http://www.w3.org/2000/svg">
<path d="M12.3587 0C5.58802 0 0.0988159 5.48921 0.0988159 12.2599C0.0988159 19.031 5.58802 24.5202 12.3587 24.5202C19.1298 24.5202 24.619 19.031 24.619 12.2599C24.6113 5.4923 19.1267 0.00771986 12.3587 0ZM4.67206 19.9477V19.842C4.67206 19.8184 4.6709 19.7953 4.6682 19.7721C4.57556 18.8558 4.87509 17.9429 5.49268 17.2597C6.11027 16.5765 6.98841 16.1866 7.90939 16.1866H8.48645L9.72973 20.0755C9.8077 20.3198 10.0142 20.5009 10.2666 20.546C10.5187 20.5912 10.7754 20.4931 10.9333 20.2913L12.18 18.7299H12.4359L13.8054 20.3171C13.9668 20.504 14.2157 20.5908 14.4585 20.5445C14.7013 20.4982 14.9009 20.326 14.9823 20.0925L16.341 16.1866H16.8088C17.7298 16.1866 18.6076 16.5765 19.2252 17.2597C19.8427 17.9433 20.1419 18.8558 20.0493 19.7721C20.0466 19.7953 20.0454 19.8184 20.0454 19.842V19.9477C18.0085 21.9893 15.2429 23.1364 12.3587 23.1364C9.47459 23.1364 6.70895 21.9893 4.67168 19.9477H4.67206ZM12.0287 16.3032H12.5722L12.3004 17.1713L12.0287 16.3032ZM21.3296 18.403C20.8463 16.2962 18.9712 14.8028 16.8092 14.8032H15.8489C15.5548 14.8032 15.2927 14.9897 15.1958 15.268L14.0694 18.5057L13.5283 17.8788L14.1737 15.8184C14.2393 15.6084 14.2015 15.3795 14.071 15.202C13.9405 15.0248 13.7336 14.9198 13.5136 14.9198H11.0873C10.8673 14.9198 10.6604 15.0248 10.5299 15.202C10.3994 15.3795 10.3612 15.6084 10.4272 15.8184L11.0772 17.8943L10.6542 18.4242L9.6506 15.2846C9.55912 14.9978 9.29278 14.8032 8.99171 14.8032H7.90977C5.74744 14.8021 3.87151 16.2959 3.38786 18.403C0.282935 13.8741 1.04103 7.74109 5.15494 4.10388C9.26885 0.467052 15.4486 0.467052 19.5629 4.10388C23.6768 7.74109 24.4349 13.8741 21.3296 18.403Z" fill="#FC5C63"/>
<path d="M13.2153 2.97522H9.15422C8.36988 2.97561 7.73454 3.61095 7.73376 4.39529V10.0296C7.73376 12.5108 9.74479 14.5222 12.226 14.5222C14.7071 14.5222 16.7185 12.5108 16.7185 10.0296V6.47811C16.7162 4.54428 15.1491 2.97715 13.2153 2.97522ZM15.3089 6.16198C14.0177 6.55917 12.6776 6.2743 11.3181 5.30816C10.9217 5.0233 10.55 4.70563 10.2068 4.35823H13.216C14.2632 4.36055 15.1522 5.12636 15.3089 6.16198ZM10.4195 6.3654C10.0848 6.84248 9.63748 7.23002 9.11716 7.49288V5.22479C9.51821 5.64089 9.954 6.02225 10.4195 6.3654ZM12.226 13.1384C10.5098 13.1365 9.11909 11.7458 9.11716 10.0296V8.97355C10.3755 8.59952 11.1803 7.7017 11.6041 7.08836C12.4004 7.49481 13.2801 7.71135 14.1741 7.721C14.5647 7.72023 14.9545 7.67546 15.3351 7.58706V10.0296C15.3332 11.7458 13.9421 13.1365 12.226 13.1384Z" fill="#FC5C63"/>
<path d="M37.6988 25.4798C30.9277 25.4798 25.4385 30.9686 25.4385 37.7397C25.4385 44.5108 30.9277 50 37.6988 50C44.4699 50 49.9587 44.5112 49.9587 37.7401C49.951 30.9721 44.4668 25.4875 37.6988 25.4798V25.4798ZM30.4892 45.8764C30.7891 44.4668 32.0363 43.4605 33.4772 43.4651H34.0531L34.4607 44.3888C35.0038 45.6889 36.2633 46.545 37.6718 46.5724C39.0803 46.5998 40.3718 45.7927 40.9651 44.515L41.4522 43.4651H41.9212C43.3578 43.4725 44.5976 44.4737 44.9076 45.8764C40.7956 49.5295 34.6008 49.5291 30.4892 45.8757V45.8764ZM45.9953 44.7652C45.2878 43.1436 43.6902 42.0918 41.9212 42.0821H41.0106C40.7412 42.0821 40.4965 42.2385 40.383 42.4828L39.7098 43.933C39.3474 44.7142 38.5572 45.2071 37.6961 45.1898C36.8349 45.172 36.0657 44.6471 35.7352 43.8515C35.7333 43.8469 35.7314 43.8423 35.7291 43.8376L35.1362 42.4948C35.0258 42.2442 34.7776 42.0825 34.5039 42.0821H33.4776C31.7043 42.0775 30.0994 43.1316 29.3988 44.7609C25.667 40.354 26.0291 33.7987 30.2244 29.8303C34.4194 25.8619 40.9844 25.8635 45.1774 29.8342C49.3704 33.8049 49.7298 40.3598 45.9953 44.7648V44.7652Z" fill="#FC5C63"/>
<path d="M39.8839 31.24C40.3687 30.1897 40.0734 28.9441 39.169 28.2227C38.2647 27.5017 36.9843 27.4912 36.0684 28.198C35.1524 28.9047 34.8374 30.1453 35.3056 31.2033C34.1681 31.9062 33.4243 33.1009 33.2958 34.4318C33.2919 34.4735 33.2811 34.585 33.2749 37.5884C33.2749 39.9619 35.1991 41.8861 37.5726 41.8861C39.9464 41.8861 41.8706 39.9619 41.8706 37.5884V34.861C41.8698 33.3938 41.1206 32.0286 39.8839 31.24V31.24ZM40.4872 35.2949C39.2887 33.9601 37.7729 32.9484 36.0799 32.3544C36.9816 31.8198 38.1002 31.8097 39.0112 32.3277C39.9221 32.8461 40.4857 33.8126 40.4872 34.8606V35.2952V35.2949ZM34.673 34.5684V34.5646V34.5684ZM34.6745 34.5541C34.7135 34.1762 34.8258 33.8099 35.0057 33.4753C35.7592 33.6748 36.4829 33.9744 37.1569 34.3658C36.9411 34.6684 36.6605 34.9193 36.3355 35.0999C35.824 35.3987 35.2547 35.5855 34.6657 35.648C34.6672 35.0961 34.6703 34.6541 34.6741 34.5541H34.6745ZM36.4748 30.1866C36.474 29.72 36.7604 29.3015 37.1955 29.1329C37.6305 28.9646 38.1242 29.0808 38.438 29.4258C38.7518 29.7709 38.8209 30.2735 38.612 30.6903C38.2724 30.6054 37.9234 30.5626 37.573 30.5626C37.2414 30.5626 36.9102 30.6004 36.5871 30.6757C36.513 30.5232 36.4744 30.3557 36.474 30.1862L36.4748 30.1866ZM37.573 40.5027C35.9649 40.5011 34.661 39.198 34.6587 37.5896C34.6587 37.4186 34.6595 37.2302 34.6602 37.0334C35.4998 36.9739 36.3142 36.7196 37.0391 36.2911C37.5409 36.0082 37.9728 35.6152 38.3013 35.142C39.1613 35.8248 39.9001 36.6474 40.4876 37.5749V37.5884C40.4857 39.1972 39.1818 40.5011 37.5726 40.5027H37.573Z" fill="#FC5C63"/>
<path d="M22.3015 43.1529H8.78173C8.41427 43.1513 8.06379 42.9989 7.81212 42.7317C7.56547 42.4612 7.43462 42.1049 7.44813 41.739C7.44813 41.7343 7.44813 41.7293 7.44813 41.7251L7.46974 31.3257L9.7857 33.642C10.0559 33.9122 10.494 33.9122 10.7642 33.642C11.034 33.3718 11.034 32.9337 10.7642 32.6639L7.27019 29.1699C7.25552 29.1552 7.24008 29.1417 7.22425 29.1282L7.22194 29.1263C7.20765 29.1143 7.19222 29.1035 7.17755 29.0927C7.17407 29.0904 7.17099 29.0881 7.16751 29.0857C7.15284 29.0757 7.13779 29.0668 7.12235 29.0583C7.1181 29.0556 7.11386 29.0529 7.10961 29.0506C7.09494 29.0425 7.07989 29.0359 7.06445 29.029C7.05905 29.0263 7.05403 29.0236 7.04824 29.0213C7.03357 29.0151 7.01852 29.0101 7.00385 29.0051C6.99729 29.0027 6.99073 29 6.98416 28.9981C6.96873 28.9935 6.95329 28.9896 6.93785 28.9861C6.93128 28.9846 6.92472 28.9827 6.91777 28.9811C6.89963 28.9777 6.8811 28.975 6.86258 28.9726C6.85872 28.9723 6.85486 28.9715 6.85061 28.9711C6.80391 28.9665 6.75681 28.9665 6.71011 28.9711C6.70664 28.9711 6.70355 28.9723 6.70007 28.9726C6.68116 28.9746 6.66225 28.9777 6.64333 28.9811C6.636 28.9827 6.62944 28.9846 6.62249 28.9861C6.60744 28.9896 6.59277 28.9931 6.57771 28.9977C6.57038 29 6.56305 29.0031 6.55571 29.0054C6.54182 29.0105 6.52754 29.0155 6.51403 29.0209C6.50708 29.0236 6.50052 29.0271 6.49434 29.0302C6.48006 29.0363 6.46655 29.0425 6.45304 29.0498C6.44686 29.0529 6.44146 29.0568 6.43567 29.0599C6.42177 29.0676 6.40826 29.0753 6.39514 29.0842C6.38935 29.0881 6.38395 29.0923 6.37854 29.0965C6.3658 29.1058 6.35307 29.1147 6.3411 29.1243C6.33377 29.1305 6.32682 29.1371 6.31987 29.1436C6.31022 29.1521 6.30019 29.1602 6.29092 29.1695L2.79846 32.6639C2.52826 32.9341 2.52826 33.3718 2.79846 33.642C3.06865 33.9122 3.50637 33.9122 3.77656 33.642L6.08596 31.333L6.06473 41.7158C6.04427 42.4399 6.30829 43.1432 6.79966 43.6751C7.3084 44.2163 8.01515 44.5274 8.7578 44.5363H22.3015C22.6837 44.5363 22.9932 44.2267 22.9932 43.8446C22.9932 43.4624 22.6837 43.1529 22.3015 43.1529V43.1529Z" fill="#FC5C63"/>
<path d="M27.9911 6.84714H41.5112C41.8779 6.85061 42.2276 7.00308 42.4793 7.2698C42.731 7.53652 42.863 7.89433 42.8452 8.26103V8.27492L42.824 18.6743L40.5077 16.358C40.2375 16.0878 39.7997 16.0878 39.5295 16.358C39.2594 16.6282 39.2594 17.0663 39.5295 17.3365L43.022 20.8301C43.051 20.8587 43.0826 20.8849 43.1162 20.9081C43.1189 20.91 43.1212 20.912 43.1239 20.9139C43.137 20.9228 43.1505 20.9305 43.1637 20.9382C43.1698 20.9421 43.1756 20.9459 43.1818 20.9494C43.1938 20.9556 43.2061 20.961 43.2181 20.9668C43.2266 20.9706 43.2347 20.9749 43.2428 20.9787C43.2548 20.9834 43.2667 20.9876 43.2787 20.9919C43.288 20.9949 43.2972 20.9988 43.3065 21.0015C43.3204 21.0057 43.3343 21.0088 43.3486 21.0123C43.3563 21.0142 43.364 21.0166 43.3721 21.0185C43.3926 21.0223 43.413 21.0258 43.4343 21.0281L43.4393 21.0289C43.5091 21.0366 43.5798 21.0332 43.6489 21.0193C43.6581 21.0173 43.667 21.0146 43.6763 21.0123C43.689 21.0092 43.7017 21.0065 43.7141 21.0023C43.7264 20.9984 43.7376 20.9942 43.7492 20.9895C43.7589 20.9864 43.7681 20.9834 43.7774 20.9799C43.789 20.9749 43.8002 20.9695 43.811 20.9641C43.8202 20.9594 43.8295 20.9556 43.8384 20.9509C43.8473 20.9459 43.8569 20.9397 43.8662 20.934C43.8754 20.9285 43.8866 20.9224 43.8963 20.9158C43.9032 20.9112 43.909 20.9058 43.9156 20.9015C43.9457 20.8803 43.9739 20.8564 44.0001 20.8309L47.4937 17.3373C47.7639 17.0671 47.7639 16.629 47.4937 16.3588C47.2235 16.0886 46.7854 16.0886 46.5152 16.3588L44.2062 18.6682L44.2275 8.28496C44.2514 7.55196 43.9793 6.8398 43.4729 6.30945C42.9664 5.77909 42.2678 5.47454 41.5344 5.46451H27.9914C27.6093 5.46451 27.2997 5.77407 27.2997 6.15621C27.2997 6.53795 27.6093 6.84791 27.9914 6.84791L27.9911 6.84714Z" fill="#FC5C63"/>
</svg>
