<svg width="93" height="41" viewBox="0 0 93 41" fill="none" xmlns="http://www.w3.org/2000/svg">
<path fill-rule="evenodd" clip-rule="evenodd" d="M51.5259 2.66273L49.3027 0.425781L40.4733 9.30995L36.7685 5.58234L36.7691 17.123L36.7047 17.5757L36.7691 17.511V17.5123L42.6971 11.5475L42.6965 11.5469L51.5259 2.66273Z" fill="#FC5C63"/>
<path fill-rule="evenodd" clip-rule="evenodd" d="M42.5005 15.2411L44.7237 17.4781L53.5532 8.59389L57.2579 12.3215L57.2576 0.780799L57.3217 0.328125L57.2576 0.392801V0.391546L51.3296 6.35631L51.3302 6.35694L42.5005 15.2411Z" fill="#FC5C63"/>
<path d="M8.88338 30.6513H4.08204C3.87823 31.1414 3.7044 31.5778 3.56054 31.9603C3.41668 32.3309 3.2968 32.6537 3.20089 32.9287C3.11697 33.2036 3.05703 33.4368 3.02107 33.628C2.9851 33.8193 2.96712 33.9747 2.96712 34.0943C2.96712 34.429 3.07501 34.6621 3.2908 34.7936C3.5066 34.9132 3.86625 34.973 4.36976 34.973V35.6544H0V34.973C0.275732 34.9371 0.509505 34.8893 0.701319 34.8295C0.905121 34.7697 1.07895 34.6861 1.22281 34.5785C1.37866 34.4709 1.51053 34.3334 1.61843 34.166C1.73831 33.9867 1.8522 33.7715 1.9601 33.5205L6.63556 21.8465H7.40881L11.4908 31.9603C11.7666 32.6298 12.0063 33.1678 12.2101 33.5742C12.4139 33.9688 12.6118 34.2676 12.8036 34.4709C12.9954 34.6741 13.1992 34.8056 13.415 34.8654C13.6428 34.9252 13.9125 34.955 14.2242 34.955V35.6544H8.36188V34.955C8.99726 34.955 9.43484 34.8953 9.67461 34.7757C9.91437 34.6562 10.0343 34.4589 10.0343 34.1839C10.0343 34.0644 10.0283 33.9568 10.0163 33.8612C10.0043 33.7536 9.98031 33.64 9.94434 33.5205C9.92037 33.4009 9.87841 33.2694 9.81847 33.1259C9.77051 32.9705 9.70458 32.7912 9.62066 32.588L8.88338 30.6513ZM4.44169 29.7546H8.54171L6.54564 24.4646L4.44169 29.7546ZM21.4795 32.839C21.4795 33.3292 21.4914 33.7177 21.5154 34.0046C21.5394 34.2796 21.5993 34.4948 21.6952 34.6502C21.8031 34.7937 21.953 34.8893 22.1448 34.9371C22.3486 34.9849 22.6243 35.0208 22.972 35.0447V35.6544H18.2606V35.0447C18.5963 35.0208 18.86 34.9849 19.0518 34.9371C19.2556 34.8893 19.4115 34.7937 19.5194 34.6502C19.6273 34.5067 19.6932 34.3035 19.7172 34.0405C19.7531 33.7775 19.7711 33.4188 19.7711 32.9645V30.5795C19.7711 29.1569 19.7351 28.2902 19.6632 27.9793C19.6273 27.8239 19.5793 27.6984 19.5194 27.6028C19.4714 27.4952 19.3935 27.4175 19.2856 27.3696C19.1777 27.3099 19.0398 27.274 18.872 27.262C18.7041 27.2381 18.4884 27.2262 18.2246 27.2262V26.6523L21.1018 25.9709L21.3176 27.7462H21.3895C21.8451 27.1843 22.3786 26.748 22.99 26.4372C23.6014 26.1263 24.2667 25.9709 24.986 25.9709C25.5375 25.9709 26.041 26.0606 26.4966 26.2399C26.9521 26.4192 27.2998 26.6643 27.5396 26.9751C27.7434 27.2501 27.8872 27.6087 27.9711 28.0511C28.0551 28.4814 28.097 29.0792 28.097 29.8443V32.839C28.097 33.3292 28.109 33.7177 28.133 34.0046C28.169 34.2796 28.2349 34.4948 28.3308 34.6502C28.4267 34.7937 28.5706 34.8893 28.7624 34.9371C28.9662 34.9849 29.2299 35.0208 29.5536 35.0447V35.6544H24.8961V35.0447C25.2318 35.0328 25.4956 35.0029 25.6874 34.955C25.8912 34.8953 26.041 34.7937 26.1369 34.6502C26.2448 34.5067 26.3108 34.3035 26.3347 34.0405C26.3707 33.7655 26.3887 33.4069 26.3887 32.9645V30.5975C26.3887 29.916 26.3527 29.3422 26.2808 28.876C26.2089 28.4097 26.089 28.0331 25.9211 27.7462C25.7653 27.4593 25.5555 27.2561 25.2918 27.1365C25.028 27.005 24.7103 26.9393 24.3387 26.9393C23.7992 26.9393 23.3017 27.0827 22.8461 27.3696C22.4026 27.6446 22.0549 28.0272 21.8031 28.5173C21.7432 28.6369 21.6893 28.7504 21.6413 28.858C21.6053 28.9656 21.5754 29.0911 21.5514 29.2346C21.5274 29.3781 21.5094 29.5454 21.4974 29.7367C21.4854 29.916 21.4795 30.1492 21.4795 30.4361V32.839ZM38.2917 38.4698C37.7403 39.7012 36.8831 40.3168 35.7202 40.3168C34.965 40.3168 34.5873 40.0359 34.5873 39.474C34.5873 39.1751 34.6892 38.954 34.893 38.8105C35.1088 38.679 35.4984 38.5654 36.0619 38.4698C36.3136 38.4339 36.5294 38.3801 36.7093 38.3084C36.8891 38.2486 37.0509 38.1649 37.1948 38.0573C37.3386 37.9617 37.4645 37.8362 37.5724 37.6808C37.6923 37.5254 37.8062 37.3341 37.9141 37.1069L38.5435 35.8517L35.0908 28.3738C34.935 28.0391 34.7971 27.7761 34.6772 27.5848C34.5693 27.3816 34.4495 27.2262 34.3176 27.1186C34.1977 26.999 34.0598 26.9213 33.904 26.8855C33.7481 26.8376 33.5503 26.8018 33.3106 26.7779V26.1502H38.0759V26.7779C37.2727 26.7779 36.8711 26.9751 36.8711 27.3696C36.8711 27.525 36.9191 27.7701 37.015 28.1049C37.1109 28.4396 37.2308 28.7803 37.3746 29.127L39.3527 33.897H39.4426L41.079 29.8622C41.2349 29.4677 41.3607 29.1449 41.4566 28.8939C41.5645 28.6428 41.6425 28.4396 41.6904 28.2842C41.7504 28.1168 41.7863 27.9793 41.7983 27.8717C41.8223 27.7641 41.8343 27.6625 41.8343 27.5669C41.8343 27.2561 41.7444 27.0469 41.5645 26.9393C41.3967 26.8317 41.067 26.7779 40.5755 26.7779V26.1502H44.5317V26.7779C44.3039 26.7779 44.1121 26.8078 43.9562 26.8675C43.8004 26.9273 43.6385 27.0648 43.4707 27.28C43.3148 27.4832 43.135 27.7821 42.9312 28.1766C42.7394 28.5711 42.4996 29.1031 42.2119 29.7726L38.2917 38.4698ZM52.3984 32.8032C52.3984 33.2574 52.4224 33.628 52.4704 33.915C52.5303 34.1899 52.6502 34.4051 52.83 34.5605C53.0098 34.704 53.2616 34.8056 53.5853 34.8654C53.9209 34.9252 54.3585 34.961 54.898 34.973V35.6544H48.5322V34.973C48.9518 34.961 49.2874 34.9252 49.5392 34.8654C49.8029 34.8056 50.0067 34.704 50.1506 34.5605C50.2945 34.4171 50.3904 34.2138 50.4383 33.9508C50.4863 33.6878 50.5103 33.3471 50.5103 32.9287V24.5722C50.5103 24.1538 50.4863 23.819 50.4383 23.568C50.4024 23.305 50.3184 23.1017 50.1866 22.9583C50.0667 22.8028 49.8869 22.7012 49.6471 22.6534C49.4073 22.5936 49.0956 22.5518 48.712 22.5279V21.8465H59.1059L59.3037 25.2715H58.6743C58.6024 24.7575 58.4885 24.3391 58.3327 24.0163C58.1768 23.6815 57.955 23.4185 57.6673 23.2272C57.3916 23.036 57.0379 22.9045 56.6063 22.8327C56.1748 22.7491 55.6353 22.7072 54.9879 22.7072H52.7041C52.5003 22.7072 52.3984 22.8088 52.3984 23.0121V28.4276C52.9739 28.4276 53.4654 28.3978 53.873 28.338C54.2926 28.2663 54.6343 28.1467 54.898 27.9793C55.1737 27.812 55.3835 27.5848 55.5274 27.2979C55.6712 27.011 55.7612 26.6404 55.7971 26.1861H56.4265V31.4403H55.7971C55.7372 30.986 55.6413 30.6094 55.5094 30.3105C55.3775 30.0117 55.1797 29.7786 54.916 29.6112C54.6642 29.4438 54.3345 29.3243 53.9269 29.2525C53.5193 29.1808 53.0098 29.1449 52.3984 29.1449V32.8032ZM67.1246 32.857C67.1246 33.3112 67.1426 33.6759 67.1786 33.9508C67.2145 34.2258 67.2865 34.441 67.3944 34.5964C67.5142 34.7518 67.6761 34.8594 67.8799 34.9192C68.0957 34.979 68.3774 35.0148 68.7251 35.0268V35.6544H63.7619V35.0268C64.1215 35.0148 64.4093 34.979 64.6251 34.9192C64.8408 34.8474 65.0087 34.7399 65.1286 34.5964C65.2604 34.4529 65.3444 34.2557 65.3803 34.0046C65.4283 33.7416 65.4522 33.4009 65.4522 32.9825V25.2536C65.4522 24.608 65.4403 24.0701 65.4163 23.6397C65.4043 23.1974 65.3803 22.8985 65.3444 22.7431C65.2844 22.4681 65.1405 22.2828 64.9128 22.1872C64.697 22.0915 64.3014 22.0437 63.7259 22.0437V21.434L67.1246 20.7705V32.857ZM79.0866 30.3464C78.4033 30.6094 77.8218 30.8665 77.3423 31.1175C76.8748 31.3686 76.4971 31.6196 76.2094 31.8707C75.9217 32.1217 75.7119 32.3728 75.58 32.6238C75.4601 32.8749 75.4002 33.1319 75.4002 33.3949C75.4002 33.7894 75.5321 34.1122 75.7958 34.3633C76.0595 34.6143 76.4072 34.7399 76.8388 34.7399C77.1505 34.7399 77.4382 34.6621 77.702 34.5067C77.9777 34.3513 78.2175 34.1421 78.4212 33.8791C78.6251 33.6041 78.7869 33.2873 78.9068 32.9287C79.0267 32.5581 79.0866 32.1695 79.0866 31.7631V30.3464ZM79.0866 29.5753V28.8401C79.0866 27.3816 78.4632 26.6523 77.2164 26.6523C77.0126 26.6523 76.8388 26.6703 76.6949 26.7061C76.5511 26.742 76.4312 26.8018 76.3353 26.8855C76.2394 26.9691 76.1495 27.0887 76.0655 27.2441C75.9936 27.3995 75.9217 27.5908 75.8498 27.8179C75.7179 28.1646 75.586 28.3978 75.4541 28.5173C75.3343 28.6249 75.1544 28.6787 74.9147 28.6787C74.3152 28.6787 74.0155 28.3798 74.0155 27.7821C74.0155 27.2082 74.3212 26.7659 74.9326 26.4551C75.5441 26.1323 76.4132 25.9709 77.5401 25.9709C78.7389 25.9709 79.5901 26.1861 80.0936 26.6165C80.5971 27.0349 80.8489 27.7522 80.8489 28.7684V32.7852C80.8489 34.1481 81.1186 34.8295 81.6581 34.8295C81.8259 34.8295 81.9878 34.8116 82.1436 34.7757C82.2995 34.7279 82.4314 34.6143 82.5393 34.435L82.791 34.8654C82.6471 35.1403 82.3834 35.3735 81.9998 35.5647C81.6161 35.7441 81.2145 35.8337 80.7949 35.8337C80.2675 35.8337 79.8718 35.6664 79.6081 35.3316C79.3563 34.9969 79.2305 34.5247 79.2305 33.915H79.1405C78.8289 34.5008 78.3973 34.967 77.8458 35.3137C77.2943 35.6484 76.6829 35.8158 76.0116 35.8158C75.2563 35.8158 74.6629 35.6245 74.2313 35.242C73.7997 34.8594 73.584 34.3453 73.584 33.6998C73.584 33.4129 73.6319 33.1379 73.7278 32.8749C73.8357 32.6119 74.0035 32.3608 74.2313 32.1217C74.4591 31.8826 74.7588 31.6495 75.1304 31.4224C75.5021 31.1833 75.9576 30.9442 76.4971 30.7051L79.0866 29.5753ZM87.0837 27.28V26.6165C87.7191 26.2459 88.2166 25.8753 88.5763 25.5047C88.9359 25.1341 89.2117 24.6917 89.4035 24.1777H89.925V26.4372H92.3346V27.28H89.925V32.7314C89.925 33.1498 89.943 33.5025 89.9789 33.7894C90.0269 34.0764 90.0988 34.3095 90.1947 34.4888C90.2906 34.6562 90.4165 34.7757 90.5724 34.8474C90.7282 34.9192 90.926 34.955 91.1658 34.955C91.4655 34.955 91.7172 34.8953 91.921 34.7757C92.1368 34.6442 92.3466 34.429 92.5504 34.1301L93 34.4709C92.8322 34.9132 92.5384 35.2539 92.1189 35.493C91.7113 35.7202 91.2017 35.8337 90.5903 35.8337C89.7991 35.8337 89.1937 35.6484 88.7741 35.2778C88.3665 34.8953 88.1627 34.3513 88.1627 33.646V27.28H87.0837Z" fill="#FC5C63"/>
</svg>
