<svg width="29" height="197" viewBox="0 0 29 197" fill="none" xmlns="http://www.w3.org/2000/svg">
<path d="M29 191L19 185.226L19 196.774L29 191ZM26 6L16 0.226503L16 11.7735L26 6ZM2 171L1.99999 26L-1.44248e-05 26L-1.74846e-06 171L2 171ZM1.99999 26C1.99998 15.5066 10.5066 7 21 7L21 5C9.40201 5 -1.54387e-05 14.402 -1.44248e-05 26L1.99999 26ZM21 190C10.5066 190 2 181.493 2 171L-1.74846e-06 171C-7.34528e-07 182.598 9.40202 192 21 192L21 190Z" fill="#FC5C63"/>
<circle cx="17" cy="11" r="9" fill="#FC5C63"/>
</svg>
